<svg xmlns="http://www.w3.org/2000/svg" viewBox="0 0 148.46 80.19"><defs><style>.cls-1{fill:#fff;}</style></defs><title>Asset 1</title><g id="Layer_2" data-name="Layer 2"><g id="Layer_1-2" data-name="Layer 1"><path class="cls-1" d="M39.53,48.88h5.14l1.15,7.5H51L45.52,23.77H38.75L33.23,56.38h5.12Zm2.58-17.65,1.83,12.86H40.29Z"/><path class="cls-1" d="M62.23,56.77A7.78,7.78,0,0,0,70,49V44.43h-5.1v4.5a2.73,2.73,0,0,1-.83,2,2.82,2.82,0,0,1-4.81-2V31.1a2.78,2.78,0,0,1,.82-2,2.73,2.73,0,0,1,2-.83,2.83,2.83,0,0,1,2.84,2.82v3.85H70V31.21a7.57,7.57,0,0,0-2.26-5.52,7.81,7.81,0,0,0-13.33,5.52V49a7.77,7.77,0,0,0,7.79,7.75Z"/><polygon class="cls-1" points="78.93 35.92 83.69 56.38 87.65 56.38 91.92 35.87 91.92 56.38 96.84 56.38 96.84 23.73 90.06 23.73 85.66 47.19 81.07 23.73 74.01 23.73 74.01 56.38 78.93 56.38 78.93 35.92"/><polygon class="cls-1" points="115.25 51.44 106.16 51.44 106.16 42.53 112.81 42.53 112.81 37.58 106.16 37.58 106.16 28.68 115.25 28.68 115.25 23.73 101.24 23.73 101.24 56.38 115.25 56.38 115.25 51.44"/><path class="cls-1" d="M0,0V80.19H148.46V0ZM143.42,75.15H5V5H143.42Z"/></g></g></svg>